# xmcd
#
# Track frame offsets:
#	150
#	32740
#	48715
#
# Disc length: 1276 seconds
#
# Revision: 1
# Processed by: cddbd v1.5.1PL2 Copyright (c) Steve Scherf et al.
# Submitted via: EasyCDDAExtractor 9.0.0.1
#
DISCID=2204fa03
DTITLE=Tony Martin - Club B 2 Moscow 13-11-05 Disc 2
DYEAR=2005
DGENRE=Hard Rock
TTITLE0=Headless Cross
TTITLE1=Paranoid
TTITLE2=War Pigs
EXTD=
EXTT0=
EXTT1=
EXTT2=
PLAYORDER=
